<svg width="64" height="64" viewBox="0 0 64 64" fill="none" xmlns="http://www.w3.org/2000/svg">
<path d="M60.9 2C62.7 15.4 62.4 26.2 59.7 33.1L34.9 14.7C39.8 9.6 49.8 3.5 60.9 2Z" fill="#DADEE0"/>
<path d="M57.7 32.2L47.5 18.9C47.5 18.9 49.4 11.6 59.1 6.5C62 18.1 57.7 32.2 57.7 32.2" fill="#F7A4A4"/>
<path d="M53.8 29.2L47.5 21C47.5 21 50.1 16 56.1 12.8C52.6 20.3 53.8 29.2 53.8 29.2" fill="#F78D8D"/>
<path d="M3.1 2C1.3 15.4 1.6 26.2 4.3 33.1L29.1 14.6C24.2 9.6 14.2 3.5 3.1 2Z" fill="#DADEE0"/>
<path d="M6.29999 32.2L16.6 18.9C16.6 18.9 14.7 11.6 4.99999 6.5C1.99999 18.1 6.29999 32.2 6.29999 32.2Z" fill="#F7A4A4"/>
<path d="M10.2 29.2L16.6 21C16.6 21 14 16 8 12.8C11.4 20.3 10.2 29.2 10.2 29.2Z" fill="#F78D8D"/>
<path d="M58.2 50.8C59 49.9 59.6 49.2 59.9 48.6C61.5 46 62 43.3 62 43.3L60 43.7C60 43.7 62.3 41.2 61.7 35.9L59.7 38C59.7 38 61.6 32.6 60 27.6L57.8 29.2C57.8 29.2 58.5 27.2 57.9 25.8L57 26.5C57 26.5 58.7 21.8 57.2 19.9C56.3 22.7 55.3 22.7 55.3 22.7C55.3 22.7 56.5 20.6 55.6 19.7C54.6 21.3 53.8 20.3 53.8 19.8C53.9 19.2 53.6 18.3 56.5 17.8C54.2 16.4 51.4 17.4 51.4 17.4C51.4 17.4 51.5 15.9 53.5 16C51.6 14.4 49 15.4 49 15.4C44.9 12.3 39.4 10.5 31.9 10.5C24.5 10.5 19 12.3 14.8 15.4C14.8 15.4 12.2 14.5 10.3 16C12.3 15.9 12.4 17.4 12.4 17.4C12.4 17.4 9.7 16.4 7.3 17.8C10.2 18.2 10 19.1 10 19.8C10 20.3 9.2 21.3 8.2 19.7C7.2 20.6 8.5 22.7 8.5 22.7C8.5 22.7 7.5 22.7 6.6 19.9C5.1 21.9 6.8 26.5 6.8 26.5L5.9 25.8C5.3 27.2 6 29.2 6 29.2L4 27.6C2.3 32.6 4.3 38 4.3 38L2.4 35.9C1.7 41.2 4 43.7 4 43.7L2 43.3C2 43.3 2.5 46 4.1 48.6C4.3 49.1 4.9 49.9 5.8 50.8L5.9 50.9C10 55 20.1 62 32 62C43.9 62 54 55 58.1 50.9C58.1 50.8 58.2 50.8 58.2 50.8Z" fill="#DADEE0"/>
<path d="M37.6999 10.8C35.8999 10.5 33.9999 10.4 31.9999 10.4C29.9999 10.4 28.0999 10.5 26.2999 10.8C26.9999 14.7 29.0999 17.4 31.9999 22.4C34.9999 17.3 36.9999 14.6 37.6999 10.8" fill="#94989B"/>
<path d="M46.7999 13.8C44.8999 12.7 42.6999 11.9 40.2999 11.3C40.8999 13.6 42.1999 15.2 43.8999 18.2C45.1999 16.1 46.0999 15.5 46.7999 13.8" fill="#94989B"/>
<path d="M23.7 11.3C21.2 11.9 19.1 12.7 17.2 13.8C17.9 15.6 18.9 16.1 20.1 18.2C21.9 15.1 23.1 13.5 23.7 11.3" fill="#94989B"/>
<path d="M60.9 26C60.5 23.9 59.1 22.1 56.9 21.6C54.5 21 52.3 21.9 50.2 23.8C49 20.9 47.2 18.7 44.4 17.6C41.5 16.5 38.6 17.2 36.8 19.2C34.9 21.3 34.2 24.5 36.2 28.8C38.1 32.8 46.4 40.8 46.7 41C47 40.8 56.3 35.6 58.6 33.1C60.8 30.6 61.3 28.1 60.9 26" fill="#F46767"/>
<path d="M27.2 19.2C25.4 17.2 22.6 16.4 19.6 17.6C16.7 18.7 14.9 20.9 13.8 23.8C11.7 21.9 9.50001 21.1 7.10001 21.6C4.90001 22.1 3.50001 23.9 3.10001 26C2.70001 28.1 3.20001 30.6 5.40001 33.1C7.70001 35.6 17 40.8 17.3 41C17.5 40.8 25.9 32.7 27.8 28.8C29.8 24.5 29.1 21.3 27.2 19.2" fill="#F46767"/>
<path d="M36 38C35.2 37.1 32.7 37 32 37C31.3 37 28.8 37.1 28 38C27.4 38.7 27.9 40.3 29.4 41.8C30.4 42.7 31.3 43 32 43C32.7 43 33.7 42.7 34.6 41.8C36.2 40.4 36.6 38.7 36 38Z" fill="#4C5359"/>
<path d="M45 46.7C45 46.1 44.6 45.3 43.6 45.1C41 44.5 37 44 32 44C27 44 23 44.5 20.4 45C19.4 45.2 19 46 19 46.6C19 52.3 23.3 58 32 58C40.7 58 45 52.3 45 46.7Z" fill="#4C5359"/>
<path d="M25.5 54.6C27.4 55.5 29.5 56 32 56C34.5 56 36.6 55.5 38.5 54.6C36.7 53.6 34.5 53 32 53C29.5 53 27.3 53.6 25.5 54.6Z" fill="#FF717F"/>
</svg>
