<svg width="150" height="150" viewBox="0 0 150 150" fill="none" xmlns="http://www.w3.org/2000/svg">
<path d="M35.6979 122.706C35.6979 122.706 31.5313 94.5813 56.5312 94.5813C63.1792 99.0146 68.8771 102.077 75.2812 102.065H75.0208C81.425 102.077 86.2875 97.5563 92.9375 93.1229C125.375 93.1229 115.438 122.706 115.438 122.706" fill="#92D3F5"/>
<path d="M102.702 122.627V95.8042L93.3459 94.1708V109.265H56.1021L56.1063 94.1708L46.3854 95.8042V122.627H102.702Z" fill="#61B2E4"/>
<path d="M139.765 90.4645L125.285 124.525H73.2229L87.7021 90.4645H139.765Z" fill="#D0CFCE"/>
<path d="M140.215 90.4645L125.735 124.525H107.006L121.485 90.4645H140.215Z" fill="#9B9B9A"/>
<path d="M102.423 70.3916C98.0208 81.4021 86.9646 88.5229 74.025 88.5229C62.8688 88.5229 50.4625 81.6312 46.0604 70.6208L45.9042 70.2458C44.5083 66.7916 44.7333 62.5646 44.7333 58.6125L49.2208 19.5208L61.7375 31.6937C65.4212 30.1433 69.3783 29.3471 73.375 29.3521H74.675C78.6717 29.3471 82.6288 30.1433 86.3125 31.6937L100.052 18.3125L104.608 59.2208C104.613 63.052 103.878 66.848 102.442 70.4" fill="#F4AA41"/>
<path d="M74.025 88.5208C87.0063 88.9375 98.9313 81.4437 103.333 70.4333L103.469 70.1541C104.865 66.7 104.642 61.825 104.642 57.8729L100.052 18.3125" fill="#E27022"/>
<path d="M47.1917 36.875L46.1771 46.725L102.702 43.3063L102.113 38.1937L47.1917 36.875V36.875Z" fill="#B399C8"/>
<path d="M106.035 40.8333C106.035 41.6574 105.791 42.463 105.333 43.1482C104.875 43.8334 104.225 44.3675 103.463 44.6828C102.702 44.9982 101.864 45.0807 101.056 44.9199C100.248 44.7592 99.5052 44.3623 98.9225 43.7796C98.3398 43.1969 97.9429 42.4545 97.7822 41.6462C97.6214 40.8379 97.7039 40.0002 98.0193 39.2388C98.3346 38.4774 98.8687 37.8267 99.5539 37.3689C100.239 36.911 101.045 36.6667 101.869 36.6667C102.974 36.6667 104.034 37.1056 104.815 37.887C105.596 38.6684 106.035 39.7283 106.035 40.8333Z" fill="#B399C8"/>
<path d="M98.0667 52.0312C98.0667 52.0312 81.05 59.1292 81.8521 60.0312C98.1334 74.6479 99.4105 54.0667 98.0667 52.0312Z" fill="white"/>
<path d="M51.3083 52.0312C51.3083 52.0312 67.0521 60.3854 67.525 60.0312C51.8062 75.4146 49.7208 55.3708 51.3083 52.0312Z" fill="white"/>
<path d="M111.921 107.788C111.395 108.95 110.566 109.95 109.522 110.683C108.478 111.416 107.255 111.855 105.983 111.954C103.685 111.954 102.608 110.088 103.588 107.788C104.113 106.625 104.942 105.626 105.986 104.893C107.03 104.16 108.251 103.721 109.523 103.621C111.821 103.621 112.896 105.488 111.919 107.788" fill="white"/>
<path d="M76.8167 100.831C76.0819 100.945 75.3393 101 74.5959 100.998H74.8563C68.4521 101.012 62.7563 97.95 56.1063 93.5167C31.1063 93.5167 35.2729 120.6 35.2729 120.6" stroke="black" stroke-width="2" stroke-linecap="round" stroke-linejoin="round"/>
<path d="M73.8896 108.61H56.1021L56.1063 93.5167" stroke="black" stroke-width="2" stroke-linecap="round" stroke-linejoin="round"/>
<path d="M46.3854 95.3271V120.556" stroke="black" stroke-width="2" stroke-linecap="round" stroke-linejoin="round"/>
<path d="M73.2229 124.525H125.285L139.765 90.4646H87.7021L73.2229 124.525V124.525Z" stroke="black" stroke-width="2" stroke-linecap="round" stroke-linejoin="round"/>
<path d="M50.3688 124.527H73.2229" stroke="black" stroke-width="2" stroke-linecap="round" stroke-linejoin="round"/>
<path d="M79.7792 74.1438L74.6875 67.8646" stroke="black" stroke-width="1.8" stroke-linecap="round" stroke-linejoin="round"/>
<path d="M69.5979 74.1438L74.6875 67.8646" stroke="black" stroke-width="1.8" stroke-linecap="round" stroke-linejoin="round"/>
<path d="M69.5979 67.8646H79.7792" stroke="black" stroke-width="1.8" stroke-linecap="round" stroke-linejoin="round"/>
<path d="M103.681 49.7271L104.594 58.4438C104.598 62.1515 103.879 65.8245 102.475 69.2563" stroke="black" stroke-width="2" stroke-linecap="round" stroke-linejoin="round"/>
<path d="M46.9 69.2542C45.4966 65.823 44.7769 62.1508 44.7813 58.4438L49.2354 18.8813L62.6729 31.8208C66.2791 30.3217 70.1468 29.5527 74.0521 29.5583H75.3229C79.2296 29.5525 83.0987 30.3215 86.7063 31.8208L100.14 18.8833L101.527 32.2125" stroke="black" stroke-width="2" stroke-linecap="round" stroke-linejoin="round"/>
<path d="M58.5667 82.7542C63.2222 85.6213 68.5846 87.1341 74.0521 87.123H75.3229C80.7904 87.1341 86.1528 85.6213 90.8083 82.7542" stroke="black" stroke-width="1.8" stroke-linecap="round" stroke-linejoin="round"/>
<path d="M59.4167 60.3291C60.8227 60.3291 61.9625 59.2043 61.9625 57.8166C61.9625 56.429 60.8227 55.3041 59.4167 55.3041C58.0107 55.3041 56.8708 56.429 56.8708 57.8166C56.8708 59.2043 58.0107 60.3291 59.4167 60.3291Z" fill="black"/>
<path d="M89.9604 60.3291C91.3664 60.3291 92.5062 59.2043 92.5062 57.8166C92.5062 56.429 91.3664 55.3041 89.9604 55.3041C88.5544 55.3041 87.4146 56.429 87.4146 57.8166C87.4146 59.2043 88.5544 60.3291 89.9604 60.3291Z" fill="black"/>
<path d="M98.0667 51.9729C98.0667 51.9729 81.05 59.0729 81.8521 59.9729C98.1334 74.5896 99.4105 54.0104 98.0667 51.9729Z" stroke="black" stroke-width="1.6" stroke-linecap="round" stroke-linejoin="round"/>
<path d="M106.088 77.4896L94.6334 71.2083" stroke="black" stroke-width="1.6" stroke-linecap="round" stroke-linejoin="round"/>
<path d="M101.413 82.9354L89.9604 76.6562" stroke="black" stroke-width="1.6" stroke-linecap="round" stroke-linejoin="round"/>
<path d="M51.3083 51.9729C51.3083 51.9729 67.0521 60.3271 67.525 59.9729C51.8062 75.3562 49.7208 55.3146 51.3083 51.9729Z" stroke="black" stroke-width="1.6" stroke-linecap="round" stroke-linejoin="round"/>
<path d="M43.2896 77.4896L54.7417 71.2083" stroke="black" stroke-width="1.6" stroke-linecap="round" stroke-linejoin="round"/>
<path d="M47.9625 82.9354L59.4167 76.6562" stroke="black" stroke-width="1.6" stroke-linecap="round" stroke-linejoin="round"/>
<path d="M97.9125 38.0917L47.1917 36.875L46.1771 46.725L97.9271 43.5959" stroke="black" stroke-width="1.6" stroke-linecap="round" stroke-linejoin="round"/>
<path d="M105.202 40.8333C105.202 41.6574 104.958 42.463 104.5 43.1482C104.042 43.8334 103.391 44.3675 102.63 44.6828C101.869 44.9982 101.031 45.0807 100.223 44.9199C99.4143 44.7592 98.6719 44.3623 98.0892 43.7796C97.5064 43.1969 97.1096 42.4545 96.9488 41.6462C96.7881 40.8379 96.8706 40.0002 97.1859 39.2388C97.5013 38.4774 98.0354 37.8267 98.7206 37.3689C99.4058 36.911 100.211 36.6667 101.035 36.6667C102.141 36.6667 103.2 37.1056 103.982 37.887C104.763 38.6684 105.202 39.7283 105.202 40.8333Z" stroke="black" stroke-width="1.6" stroke-linecap="round" stroke-linejoin="round"/>
</svg>
