<svg width="100" height="100" viewBox="0 0 100 100" fill="none" xmlns="http://www.w3.org/2000/svg">
<path d="M3.59377 56.4063C3.28127 54.8438 3.12502 53.2813 3.28127 51.875C3.28127 50 3.75002 48.4375 4.68752 46.875C5.62502 45.1563 7.18752 43.75 8.90627 42.9688C10.625 42.0313 12.8125 41.7187 14.8438 42.0312C16.7188 42.1875 18.5938 42.9688 20.1563 44.0625C21.5625 45 22.8125 46.25 23.9063 47.6563C25.625 50 26.875 52.8125 27.5 56.0938V56.5625C27.8125 58.5938 26.5625 60.4688 24.5313 61.0938C24.2188 61.25 23.9063 61.25 23.5938 61.25C22.3438 61.4063 21.25 61.0938 20.3125 60.3125C19.375 59.5313 18.75 58.5938 18.5938 57.3438C18.2813 55.1563 17.8125 53.2813 16.875 51.875C16.0938 50.4688 14.8438 49.375 13.5938 49.0625C13.125 48.9063 12.5 48.9063 12.0313 49.0625C11.4063 49.2188 10.9375 49.6875 10.625 50.1563C10.1563 50.7813 9.84377 51.4063 9.84377 52.3438C9.68752 53.2813 9.68752 54.2188 9.84377 55.1563C10.1563 57.0313 10.7813 59.2188 11.875 61.4063C12.3438 62.3438 12.9688 63.4375 13.5938 64.5313C14.2188 65.625 15 66.5625 15.625 67.3438C17.3438 69.375 18.9063 70.9375 20.625 72.1875C22.6563 73.5938 24.6875 74.5313 26.7188 74.8438C28.75 75.1563 31.0938 75.1563 33.4375 74.375C35.3125 73.9063 36.4063 74.5313 36.7188 75.4688C37.0313 76.25 36.5625 77.5 34.6875 78.125H34.5313C31.7188 79.0625 28.75 79.375 26.0938 78.9063C23.4375 78.5938 20.625 77.3438 17.9688 75.7813C15.7813 74.375 13.9063 72.5 11.875 70.3125C11.0938 69.375 10.3125 68.4375 9.68752 67.6563L9.37502 67.1875C8.43752 66.0938 7.65627 65 7.03127 63.9063C5.15627 61.4063 4.06252 58.9063 3.59377 56.4063Z" fill="#3E4347"/>
<path d="M72.9688 87.3437C75.7813 90.9375 88.1251 87.3437 90.1563 83.2812C98.2813 66.7187 90.1563 59.5312 90.1563 59.5312L72.9688 61.875C72.9688 62.0312 69.5313 82.9687 72.9688 87.3437" fill="#3E4347"/>
<path d="M49.6875 87.3437C46.875 90.9375 34.5313 87.3437 32.5 83.2812C24.375 66.7187 32.5 59.5312 32.5 59.5312L49.6875 61.875C49.6875 62.0312 53.2813 82.9687 49.6875 87.3437" fill="#3E4347"/>
<path d="M53.9063 86.25C53.75 87.9688 49.8438 88.9063 45.1563 88.4375C40.4688 87.9688 36.875 86.4063 36.875 84.6875C37.0313 82.9688 40.625 85.1563 45.3125 85.4688C50.1563 86.0938 54.0625 84.6875 53.9063 86.25Z" fill="white"/>
<path d="M68.75 86.25C68.9063 87.9688 72.8125 88.9063 77.5 88.4375C82.1875 87.9688 85.7813 86.4063 85.7813 84.6875C85.625 82.9688 82.0313 85.1563 77.3438 85.4688C72.5 86.0938 68.5938 84.6875 68.75 86.25Z" fill="white"/>
<path d="M61.25 94.375C64.375 97.8125 75.1562 97.6563 78.5937 94.375C83.2812 89.6875 83.125 68.2812 83.2812 57.9687L62.9687 56.25C63.125 56.25 57.3437 89.8438 61.25 94.375" fill="#4C5359"/>
<path d="M61.4062 94.375C58.2812 97.8125 47.5 97.6563 44.0625 94.375C39.375 89.6875 39.5312 68.2812 39.375 57.9687L59.6875 56.25C59.6875 56.25 65.3125 89.8438 61.4062 94.375" fill="#4C5359"/>
<path d="M53.125 68.2812L61.4063 85.7813L69.6875 68.2812H53.125Z" fill="white"/>
<path d="M93.5938 3.43741C89.8438 1.24991 70.4688 11.4062 66.5625 18.2812L94.5313 34.8437C98.2813 28.1249 97.1875 5.46866 93.5938 3.43741" fill="#4C5359"/>
<path d="M87.8125 13.75C86.4063 12.9687 75 18.125 72.8125 21.875L88.4375 31.0937C90.4688 27.5 89.0625 14.5312 87.8125 13.75" fill="#F7A4A4"/>
<path d="M29.2187 3.43747C25.4687 5.62497 24.3749 27.9687 28.2812 34.8437L56.2499 18.2812C52.4999 11.5625 32.8124 1.24997 29.2187 3.43747Z" fill="#4C5359"/>
<path d="M35.1563 13.7499C33.7501 14.5312 32.3438 27.3437 34.5313 31.0937L50.0001 21.8749C47.9688 18.2812 36.4063 12.9687 35.1563 13.7499Z" fill="#F7A4A4"/>
<path d="M61.4062 14.6875C28.9062 14.6875 25.7812 37.5 25.7812 50.1562C25.7812 55.4687 41.7188 71.875 61.25 71.875C80.9375 71.875 96.875 55.4687 96.875 50.1562C96.875 37.5 93.75 14.6875 61.4062 14.6875Z" fill="#4C5359"/>
<path d="M52.3437 44.5312C52.3437 44.5312 48.5937 50.1562 41.7187 48.4374C34.8438 46.7187 34.5312 39.9999 34.5312 39.9999C34.5312 39.9999 38.2812 34.3749 45.1562 36.0937C52.0312 37.9687 52.3437 44.5312 52.3437 44.5312Z" fill="#BFFFAB"/>
<path d="M51.5625 41.7188C51.5625 41.7188 48.2813 45.3125 43.75 45.3125C38.9063 45.3125 35.9375 38.4375 35.9375 38.4375C35.9375 38.4375 39.2187 34.6875 45 36.25C50.4687 37.5 51.5625 41.7188 51.5625 41.7188" fill="#93E67F"/>
<path d="M46.5625 41.5625C46.5625 49.2187 42.8125 49.2187 42.8125 41.5625C42.8125 33.9063 46.5625 33.9063 46.5625 41.5625Z" fill="#4C5359"/>
<path d="M70.4688 44.5312C70.4688 44.5312 74.2188 50.1562 81.0938 48.4374C87.9688 46.7187 88.2813 39.9999 88.2813 39.9999C88.2813 39.9999 84.5313 34.3749 77.6563 36.0937C70.7813 37.9687 70.4688 44.5312 70.4688 44.5312Z" fill="#BFFFAB"/>
<path d="M71.0938 41.7188C71.0938 41.7188 74.375 45.3125 78.9062 45.3125C83.75 45.3125 86.7188 38.4375 86.7188 38.4375C86.7188 38.4375 83.4375 34.6875 77.6563 36.25C72.1875 37.5 71.0938 41.7188 71.0938 41.7188" fill="#93E67F"/>
<path d="M76.0938 41.5625C76.0938 49.2187 79.8437 49.2187 79.8437 41.5625C80 33.9063 76.0938 33.9063 76.0938 41.5625Z" fill="#4C5359"/>
<path d="M71.7188 50.7812C68.5938 48.4375 65.1562 40.625 61.4062 40.625C57.6562 40.625 54.0625 48.4375 51.0938 50.7812C46.25 54.5312 33.125 58.75 33.125 58.75C33.125 58.75 47.0312 70.625 61.4062 70.625C75.7812 70.625 89.6875 58.75 89.6875 58.75C89.6875 58.75 76.5625 54.5312 71.7188 50.7812Z" fill="white"/>
<path d="M71.4062 61.4063C70.3125 62.0313 68.9062 62.3438 67.6562 62.3438C66.4062 62.1875 65.1562 61.875 64.2187 61.0938C63.2812 60.3125 62.5 59.2188 62.3438 58.125L61.4062 52.9688L60.4687 58.125C60.3125 59.375 59.5312 60.3125 58.5937 61.0938C57.6562 61.875 56.4062 62.3438 55.1562 62.3438C53.75 62.3438 52.5 62.1875 51.4063 61.4063C50.3125 60.7813 49.2187 59.6875 48.75 58.2813C48.75 59.8438 49.6875 61.25 50.7812 62.1875C51.875 63.125 53.5937 63.75 55 63.9063C56.5625 64.0625 58.125 63.5938 59.5312 62.6563C60.3125 62.1875 60.7812 61.5625 61.4062 60.7813C61.875 61.5625 62.5 62.1875 63.2812 62.6563C64.6875 63.5938 66.25 64.0625 67.8125 63.9063C69.375 63.9063 70.9375 63.2813 72.0312 62.1875C73.2812 61.25 74.0625 59.6875 74.0625 58.2813C73.5937 59.6875 72.6562 60.7813 71.4062 61.4063" fill="#4C5359"/>
<path d="M66.25 51.7187C65.3125 50.625 62.3438 50.4688 61.4062 50.4688C60.4687 50.4688 57.5 50.625 56.5625 51.7187C55.9375 52.5 56.4062 54.5313 58.2812 56.4063C59.375 57.5 60.4687 57.8125 61.4062 57.8125C62.3438 57.8125 63.4375 57.5 64.5313 56.4063C66.4063 54.5313 66.875 52.5 66.25 51.7187Z" fill="#4C5359"/>
<path d="M60.9375 93.125C60.9375 94.8438 57.3437 96.0938 52.8125 96.0938C48.2812 96.0938 44.6875 94.6875 44.6875 93.125C44.6875 91.4063 48.2812 93.2813 52.8125 93.2813C57.1875 93.2813 60.9375 91.5625 60.9375 93.125Z" fill="white"/>
<path d="M77.9687 93.125C77.9687 94.8438 74.375 96.0938 69.8437 96.0938C65.3125 96.0938 61.7188 94.6875 61.7188 93.125C61.7188 91.4063 65.3125 93.2813 69.8437 93.2813C74.375 93.2813 77.9687 91.5625 77.9687 93.125Z" fill="white"/>
<path d="M46.25 95.625L48.4375 91.875L47.8125 96.25L46.25 95.625Z" fill="#3E4347"/>
<path d="M51.7188 96.875L52.5 91.7188L53.2812 96.875H51.7188Z" fill="#3E4347"/>
<path d="M57.8125 96.25L57.1875 92.1875L59.375 95.7813L57.8125 96.25Z" fill="#3E4347"/>
<path d="M75 96.25L74.375 91.875L76.5625 95.625L75 96.25Z" fill="#3E4347"/>
<path d="M69.375 96.875L70.1562 91.7188L70.9375 96.875H69.375Z" fill="#3E4347"/>
<path d="M63.2812 95.7813L65.4688 92.1875L64.8437 96.25L63.2812 95.7813Z" fill="#3E4347"/>
</svg>
