<svg width="200" height="200" viewBox="0 0 200 200" fill="none" xmlns="http://www.w3.org/2000/svg">
<path d="M7.18748 112.812C6.56248 109.687 6.24998 106.563 6.56248 103.75C6.56248 100 7.49998 96.875 9.37498 93.75C11.25 90.3125 14.375 87.5 17.8125 85.9375C21.25 84.0625 25.625 83.4375 29.6875 84.0625C33.4375 84.375 37.1875 85.9375 40.3125 88.125C43.125 90 45.625 92.5 47.8125 95.3125C51.25 100 53.75 105.625 55 112.188V113.125C55.625 117.188 53.125 120.937 49.0625 122.187C48.4375 122.5 47.8125 122.5 47.1875 122.5C44.6875 122.813 42.5 122.187 40.625 120.625C38.75 119.062 37.5 117.188 37.1875 114.688C36.5625 110.313 35.625 106.563 33.75 103.75C32.1875 100.938 29.6875 98.75 27.1875 98.125C26.25 97.8125 25 97.8125 24.0625 98.125C22.8125 98.4375 21.875 99.375 21.25 100.312C20.3125 101.562 19.6875 102.813 19.6875 104.688C19.375 106.563 19.375 108.437 19.6875 110.312C20.3125 114.062 21.5625 118.437 23.75 122.812C24.6875 124.687 25.9375 126.875 27.1875 129.062C28.4375 131.25 30 133.125 31.25 134.687C34.6875 138.75 37.8125 141.875 41.25 144.375C45.3125 147.188 49.375 149.063 53.4375 149.688C57.5 150.313 62.1875 150.312 66.875 148.75C70.625 147.812 72.8125 149.063 73.4375 150.938C74.0625 152.5 73.125 155 69.375 156.25H69.0625C63.4375 158.125 57.5 158.75 52.1875 157.813C46.875 157.188 41.25 154.688 35.9375 151.563C31.5625 148.75 27.8125 145 23.75 140.625C22.1875 138.75 20.625 136.875 19.375 135.313L18.75 134.375C16.875 132.188 15.3125 130 14.0625 127.813C10.3125 122.813 8.12498 117.812 7.18748 112.812Z" fill="#3E4347"/>
<path d="M145.938 174.688C151.563 181.875 176.25 174.688 180.313 166.563C196.563 133.438 180.313 119.062 180.313 119.062L145.938 123.75C145.938 124.063 139.063 165.938 145.938 174.688" fill="#3E4347"/>
<path d="M99.375 174.688C93.75 181.875 69.0625 174.688 65 166.563C48.75 133.438 65 119.062 65 119.062L99.375 123.75C99.375 124.063 106.562 165.938 99.375 174.688" fill="#3E4347"/>
<path d="M107.813 172.5C107.5 175.938 99.6875 177.812 90.3125 176.875C80.9375 175.937 73.75 172.813 73.75 169.375C74.0625 165.938 81.25 170.313 90.625 170.938C100.313 172.188 108.125 169.375 107.813 172.5Z" fill="white"/>
<path d="M137.5 172.5C137.812 175.938 145.625 177.812 155 176.875C164.375 175.937 171.563 172.813 171.563 169.375C171.25 165.938 164.062 170.313 154.687 170.938C145 172.188 137.187 169.375 137.5 172.5Z" fill="white"/>
<path d="M122.5 188.75C128.75 195.625 150.313 195.313 157.188 188.75C166.563 179.375 166.25 136.562 166.563 115.937L125.938 112.5C126.25 112.5 114.688 179.688 122.5 188.75" fill="#4C5359"/>
<path d="M122.813 188.75C116.563 195.625 95 195.313 88.125 188.75C78.75 179.375 79.0625 136.562 78.75 115.937L119.375 112.5C119.375 112.5 130.625 179.688 122.813 188.75" fill="#4C5359"/>
<path d="M106.25 136.562L122.813 171.563L139.375 136.562H106.25Z" fill="white"/>
<path d="M187.188 6.87499C179.688 2.49999 140.938 22.8125 133.125 36.5625L189.063 69.6875C196.563 56.25 194.375 10.9375 187.188 6.87499" fill="#4C5359"/>
<path d="M175.625 27.5C172.813 25.9375 150 36.25 145.625 43.75L176.875 62.1875C180.938 55 178.125 29.0625 175.625 27.5" fill="#F7A4A4"/>
<path d="M58.4375 6.87502C50.9375 11.25 48.75 55.9375 56.5625 69.6875L112.5 36.5625C105 23.125 65.625 2.50002 58.4375 6.87502Z" fill="#4C5359"/>
<path d="M70.3125 27.5C67.5 29.0625 64.6875 54.6875 69.0625 62.1875L100 43.75C95.9375 36.5625 72.8125 25.9375 70.3125 27.5Z" fill="#F7A4A4"/>
<path d="M122.812 29.375C57.8125 29.375 51.5625 75 51.5625 100.312C51.5625 110.937 83.4375 143.75 122.5 143.75C161.875 143.75 193.75 110.937 193.75 100.312C193.75 75 187.5 29.375 122.812 29.375Z" fill="#4C5359"/>
<path d="M104.688 89.0625C104.688 89.0625 97.1875 100.313 83.4375 96.875C69.6875 93.4375 69.0625 80 69.0625 80C69.0625 80 76.5625 68.75 90.3125 72.1875C104.063 75.9375 104.688 89.0625 104.688 89.0625Z" fill="#BFFFAB"/>
<path d="M103.125 83.4375C103.125 83.4375 96.5625 90.625 87.5 90.625C77.8125 90.625 71.875 76.875 71.875 76.875C71.875 76.875 78.4375 69.375 90 72.5C100.937 75 103.125 83.4375 103.125 83.4375" fill="#93E67F"/>
<path d="M93.125 83.125C93.125 98.4375 85.625 98.4375 85.625 83.125C85.625 67.8125 93.125 67.8125 93.125 83.125Z" fill="#4C5359"/>
<path d="M140.938 89.0625C140.938 89.0625 148.438 100.313 162.188 96.875C175.938 93.4375 176.563 80 176.563 80C176.563 80 169.063 68.75 155.313 72.1875C141.563 75.9375 140.938 89.0625 140.938 89.0625Z" fill="#BFFFAB"/>
<path d="M142.188 83.4375C142.188 83.4375 148.75 90.625 157.812 90.625C167.5 90.625 173.438 76.875 173.438 76.875C173.438 76.875 166.875 69.375 155.313 72.5C144.375 75 142.188 83.4375 142.188 83.4375" fill="#93E67F"/>
<path d="M152.188 83.125C152.188 98.4375 159.687 98.4375 159.687 83.125C160 67.8125 152.188 67.8125 152.188 83.125Z" fill="#4C5359"/>
<path d="M143.438 101.562C137.188 96.875 130.313 81.25 122.813 81.25C115.313 81.25 108.125 96.875 102.188 101.562C92.5 109.062 66.25 117.5 66.25 117.5C66.25 117.5 94.0625 141.25 122.813 141.25C151.563 141.25 179.375 117.5 179.375 117.5C179.375 117.5 153.125 109.062 143.438 101.562Z" fill="white"/>
<path d="M142.813 122.813C140.625 124.063 137.813 124.688 135.313 124.688C132.813 124.375 130.313 123.75 128.438 122.188C126.563 120.625 125 118.438 124.688 116.25L122.813 105.938L120.938 116.25C120.625 118.75 119.063 120.625 117.188 122.188C115.313 123.75 112.813 124.688 110.313 124.688C107.5 124.688 105 124.375 102.813 122.813C100.625 121.563 98.4375 119.375 97.5 116.563C97.5 119.688 99.375 122.5 101.563 124.375C103.75 126.25 107.188 127.5 110 127.813C113.125 128.125 116.25 127.188 119.063 125.313C120.625 124.375 121.563 123.125 122.813 121.563C123.75 123.125 125 124.375 126.563 125.313C129.375 127.188 132.5 128.125 135.625 127.813C138.75 127.813 141.875 126.563 144.063 124.375C146.563 122.5 148.125 119.375 148.125 116.563C147.188 119.375 145.313 121.563 142.813 122.813" fill="#4C5359"/>
<path d="M132.5 103.437C130.625 101.25 124.688 100.938 122.813 100.938C120.938 100.938 115 101.25 113.125 103.437C111.875 105 112.813 109.063 116.563 112.813C118.75 115 120.938 115.625 122.813 115.625C124.688 115.625 126.875 115 129.063 112.813C132.813 109.063 133.75 105 132.5 103.437Z" fill="#4C5359"/>
<path d="M121.875 186.25C121.875 189.688 114.688 192.188 105.625 192.188C96.5625 192.188 89.375 189.375 89.375 186.25C89.375 182.813 96.5625 186.563 105.625 186.563C114.375 186.563 121.875 183.125 121.875 186.25Z" fill="white"/>
<path d="M155.937 186.25C155.937 189.688 148.75 192.188 139.687 192.188C130.625 192.188 123.438 189.375 123.438 186.25C123.438 182.813 130.625 186.563 139.687 186.563C148.75 186.563 155.937 183.125 155.937 186.25Z" fill="white"/>
<path d="M92.5 191.25L96.875 183.75L95.625 192.5L92.5 191.25Z" fill="#3E4347"/>
<path d="M103.438 193.75L105 183.437L106.562 193.75H103.438Z" fill="#3E4347"/>
<path d="M115.625 192.5L114.375 184.375L118.75 191.563L115.625 192.5Z" fill="#3E4347"/>
<path d="M150 192.5L148.75 183.75L153.125 191.25L150 192.5Z" fill="#3E4347"/>
<path d="M138.75 193.75L140.312 183.437L141.875 193.75H138.75Z" fill="#3E4347"/>
<path d="M126.562 191.563L130.938 184.375L129.687 192.5L126.562 191.563Z" fill="#3E4347"/>
</svg>
