<svg width="25" height="25" viewBox="0 0 25 25" fill="none" xmlns="http://www.w3.org/2000/svg">
<path d="M1.73608 5.90277H23.2639V19.0972H1.73608V5.90277Z" fill="white"/>
<path d="M1.73608 5.90277H23.2639V7.63888H1.73608V5.90277Z" fill="#D22F27"/>
<path d="M1.73608 9.02777H23.2639V10.4167H1.73608V9.02777Z" fill="#D22F27"/>
<path d="M1.73608 11.8055H23.2639V13.1944H1.73608V11.8055Z" fill="#D22F27"/>
<path d="M1.73608 5.90277H12.8472V13.1944H1.73608V5.90277Z" fill="#1E50A0"/>
<path d="M1.73608 14.5833H23.2639V15.9722H1.73608V14.5833Z" fill="#D22F27"/>
<path d="M3.12497 8.24653C3.46056 8.24653 3.73261 7.97448 3.73261 7.63889C3.73261 7.3033 3.46056 7.03125 3.12497 7.03125C2.78938 7.03125 2.51733 7.3033 2.51733 7.63889C2.51733 7.97448 2.78938 8.24653 3.12497 8.24653Z" fill="white"/>
<path d="M5.9028 8.24653C6.23839 8.24653 6.51044 7.97448 6.51044 7.63889C6.51044 7.3033 6.23839 7.03125 5.9028 7.03125C5.56722 7.03125 5.29517 7.3033 5.29517 7.63889C5.29517 7.97448 5.56722 8.24653 5.9028 8.24653Z" fill="white"/>
<path d="M8.68058 8.24653C9.01617 8.24653 9.28822 7.97448 9.28822 7.63889C9.28822 7.3033 9.01617 7.03125 8.68058 7.03125C8.34499 7.03125 8.07294 7.3033 8.07294 7.63889C8.07294 7.97448 8.34499 8.24653 8.68058 8.24653Z" fill="white"/>
<path d="M11.4583 8.24653C11.7939 8.24653 12.066 7.97448 12.066 7.63889C12.066 7.3033 11.7939 7.03125 11.4583 7.03125C11.1228 7.03125 10.8507 7.3033 10.8507 7.63889C10.8507 7.97448 11.1228 8.24653 11.4583 8.24653Z" fill="white"/>
<path d="M10.0694 9.63544C10.405 9.63544 10.6771 9.36339 10.6771 9.0278C10.6771 8.69222 10.405 8.42017 10.0694 8.42017C9.73384 8.42017 9.46179 8.69222 9.46179 9.0278C9.46179 9.36339 9.73384 9.63544 10.0694 9.63544Z" fill="white"/>
<path d="M7.29166 9.63544C7.62725 9.63544 7.8993 9.36339 7.8993 9.0278C7.8993 8.69222 7.62725 8.42017 7.29166 8.42017C6.95607 8.42017 6.68402 8.69222 6.68402 9.0278C6.68402 9.36339 6.95607 9.63544 7.29166 9.63544Z" fill="white"/>
<path d="M4.51389 9.63544C4.84948 9.63544 5.12153 9.36339 5.12153 9.0278C5.12153 8.69222 4.84948 8.42017 4.51389 8.42017C4.1783 8.42017 3.90625 8.69222 3.90625 9.0278C3.90625 9.36339 4.1783 9.63544 4.51389 9.63544Z" fill="white"/>
<path d="M3.12497 11.0243C3.46056 11.0243 3.73261 10.7522 3.73261 10.4167C3.73261 10.0811 3.46056 9.80902 3.12497 9.80902C2.78938 9.80902 2.51733 10.0811 2.51733 10.4167C2.51733 10.7522 2.78938 11.0243 3.12497 11.0243Z" fill="white"/>
<path d="M5.9028 11.0243C6.23839 11.0243 6.51044 10.7522 6.51044 10.4167C6.51044 10.0811 6.23839 9.80902 5.9028 9.80902C5.56722 9.80902 5.29517 10.0811 5.29517 10.4167C5.29517 10.7522 5.56722 11.0243 5.9028 11.0243Z" fill="white"/>
<path d="M8.68058 11.0243C9.01617 11.0243 9.28822 10.7522 9.28822 10.4167C9.28822 10.0811 9.01617 9.80902 8.68058 9.80902C8.34499 9.80902 8.07294 10.0811 8.07294 10.4167C8.07294 10.7522 8.34499 11.0243 8.68058 11.0243Z" fill="white"/>
<path d="M11.4583 11.0243C11.7939 11.0243 12.066 10.7522 12.066 10.4167C12.066 10.0811 11.7939 9.80902 11.4583 9.80902C11.1228 9.80902 10.8507 10.0811 10.8507 10.4167C10.8507 10.7522 11.1228 11.0243 11.4583 11.0243Z" fill="white"/>
<path d="M10.0694 12.4132C10.405 12.4132 10.6771 12.1412 10.6771 11.8056C10.6771 11.47 10.405 11.1979 10.0694 11.1979C9.73384 11.1979 9.46179 11.47 9.46179 11.8056C9.46179 12.1412 9.73384 12.4132 10.0694 12.4132Z" fill="white"/>
<path d="M7.29166 12.4132C7.62725 12.4132 7.8993 12.1412 7.8993 11.8056C7.8993 11.47 7.62725 11.1979 7.29166 11.1979C6.95607 11.1979 6.68402 11.47 6.68402 11.8056C6.68402 12.1412 6.95607 12.4132 7.29166 12.4132Z" fill="white"/>
<path d="M4.51389 12.4132C4.84948 12.4132 5.12153 12.1412 5.12153 11.8056C5.12153 11.47 4.84948 11.1979 4.51389 11.1979C4.1783 11.1979 3.90625 11.47 3.90625 11.8056C3.90625 12.1412 4.1783 12.4132 4.51389 12.4132Z" fill="white"/>
<path d="M1.73608 17.3611H23.2639V19.0972H1.73608V17.3611Z" fill="#D22F27"/>
<path d="M1.73608 5.90277H23.2639V19.0972H1.73608V5.90277Z" stroke="black" stroke-width="2" stroke-linecap="round" stroke-linejoin="round"/>
</svg>
