<svg width="101" height="99" viewBox="0 0 101 99" fill="none" xmlns="http://www.w3.org/2000/svg">
<path d="M59.1166 88.0404C59.1166 88.0404 54.6189 87.6923 54.4374 85.1091L51.8809 77.831L62.9987 67.699C62.9987 67.699 71.1498 67.5443 71.6153 67.5443C72.0888 67.5443 74.2745 77.831 74.2745 77.831L70.3607 84.1268L59.1166 88.0404V88.0404Z" fill="#2F2F2F"/>
<path d="M59.2033 41.5568C59.4479 43.6915 59.9135 45.5555 61.4364 47.1255C62.6594 48.3785 63.9377 49.4459 65.0661 50.7839C68.317 54.6434 73.7931 55.9737 77.1545 60.0187C79.3954 62.718 80.9183 66.0284 81.6916 69.3851C82.5596 73.1594 83.0961 77.3283 82.023 81.0408C80.5475 86.13 76.0104 86.7487 71.2681 87.4526C69.0903 87.7774 66.873 87.963 64.6637 88.0249C62.904 88.0713 60.8683 88.2879 59.1087 88.0481C57.57 87.8316 57.278 85.7897 57.6962 84.5909C58.1381 83.2992 59.4637 82.8119 60.7026 82.5799C61.3101 82.4639 61.9493 82.6341 62.5647 82.5335C63.7089 82.3556 64.1902 81.6209 64.2139 80.4994C64.2376 78.968 64.7741 77.6918 65.4922 76.3537C65.8157 75.7505 66.3601 75.2168 66.8809 74.7605C67.4096 74.2809 68.3249 73.6235 67.8199 72.7882C66.9519 71.3341 64.3165 72.6722 63.4248 73.2987C62.044 74.2577 61.0655 75.7118 60.6394 77.3128C60.0319 79.5326 59.5663 79.6795 57.4516 80.4684C56.2049 80.9402 55.0529 81.7214 54.5794 82.9357C54.0034 84.4439 54.9661 86.2228 53.9719 87.5377C53.1907 88.5895 51.6757 89.1696 50.2869 89.1155C46.7046 88.9608 44.3058 88.1023 45.0555 84.529C45.5289 82.286 45.379 79.8265 45.521 77.4984C45.5683 76.6244 45.6551 75.2864 44.7635 74.6754C44.4163 74.4279 43.935 74.3892 43.5326 74.4124C43.2564 74.4202 42.562 74.3815 42.3016 74.4666C41.5362 74.7063 41.7177 75.9129 41.7256 76.5471C41.7335 77.7691 41.7098 79.0144 41.6783 80.2209C41.6467 81.6518 41.8045 83.0672 41.8203 84.4826C41.8282 85.4107 41.915 86.5554 41.1338 87.2128C40.2422 87.9862 38.8771 88.1564 37.6619 88.1951C36.2022 88.2492 34.5372 88.1409 33.3221 87.3056C30.8365 85.5886 31.6808 81.6518 31.9097 79.3547C32.0596 77.8619 31.9491 76.3073 31.9097 74.7759C31.8781 73.3992 31.8387 72.0148 31.8071 70.6226C31.7913 70.0502 31.7124 69.4315 31.744 68.8437C31.8623 67.2195 31.523 65.5566 31.4757 63.8705C31.3968 60.7767 31.2311 57.6288 31.2311 54.4809C31.2311 53.1352 31.4678 51.6579 31.8623 50.3817C32.0754 49.7011 32.3042 48.7884 32.6751 48.1929C33.259 47.2416 34.269 46.3908 35.1133 45.6483C36.2022 44.697 37.4962 44.2174 38.743 43.4827C40.3605 42.5236 42.0491 41.6187 43.8008 40.8839C46.8782 39.6 50.1686 38.5017 53.6089 38.378C54.8162 38.3316 55.7236 38.1459 56.8914 37.883C58.0671 37.62 58.651 38.3934 58.864 39.4762C59.0455 40.1491 59.1244 40.853 59.2033 41.5568V41.5568Z" fill="#F79329"/>
<path d="M46.6573 19.2818C46.6573 19.2818 44.9766 17.2631 41.0628 11.7176C38.6483 8.28352 31.0338 -1.38445 27.1832 0.618758C21.2416 3.69704 21.9044 25.508 21.9044 25.508L46.6573 19.2818V19.2818Z" fill="#F79329"/>
<path d="M49.1506 19.5448C49.1506 19.5448 51.2259 17.9205 56.2285 13.2799C59.3295 10.4182 68.822 2.5214 72.1676 5.25164C77.3281 9.47461 72.0492 30.6745 72.0492 30.6745L49.1506 19.5448Z" fill="#F79329"/>
<path d="M75.2056 40.1259C75.466 33.3893 72.2624 26.0881 66.6206 21.1845C62.0598 17.209 55.2897 14.7263 48.48 14.0379C41.6704 13.3263 34.5294 14.3782 29.2269 17.325C22.6619 20.9756 17.9907 27.457 16.8071 34.1086C15.6866 40.4198 16.3179 46.9554 21.8807 51.9982C24.966 54.7903 28.9507 56.8863 33.1486 58.2244C34.7425 58.7348 38.8772 59.9646 43.288 60.4209C47.7147 60.8773 52.4175 60.5602 54.0903 60.3823C58.4775 59.9259 62.8252 58.6962 66.4312 56.6002C72.9568 52.7949 74.961 46.53 75.2056 40.1259V40.1259Z" fill="#F79329"/>
<path d="M36.1548 37.6045C35.8865 40.0873 33.8428 41.9126 31.594 41.6805C29.3452 41.4485 27.7276 39.252 27.9959 36.7615C28.2642 34.271 30.3078 32.4457 32.5567 32.6777C34.8055 32.9175 36.4152 35.1141 36.1548 37.6045Z" fill="#2F2F2F"/>
<path d="M55.1318 39.5613C54.8635 42.0441 56.4732 44.2484 58.722 44.4804C60.9708 44.7124 63.0145 42.8871 63.2828 40.4044C63.551 37.9139 61.9414 35.7096 59.6925 35.4776C57.4358 35.2533 55.4 37.0709 55.1318 39.5613Z" fill="#2F2F2F"/>
<path d="M44.7556 50.0337C44.7161 50.0337 44.6688 50.0337 44.6293 50.0259C43.9586 49.9563 43.4694 49.3685 43.5404 48.7034L44.0139 44.287C44.0849 43.6296 44.6925 43.181 45.3632 43.2197C46.0339 43.2893 46.5231 43.8771 46.4521 44.5423L45.9786 48.9509C45.9076 49.5696 45.3789 50.0337 44.7556 50.0337V50.0337Z" fill="#2F2F2F"/>
<path d="M41.1812 52.9186C39.9424 52.9109 38.6956 52.5396 37.7882 51.859C37.0702 51.3176 35.926 49.6779 37.1017 49.0514C37.2911 48.9509 37.5042 48.8967 37.7172 48.8735C38.0565 48.8271 38.3327 48.9122 38.6167 49.121C39.0744 49.4536 39.461 50.0491 40.0292 50.1574C41.8045 50.5132 43.3353 49.6238 43.7614 47.8758C43.8719 47.404 43.9113 47.1797 44.4795 47.1255C45.8603 47.0018 46.1917 48.7034 45.813 49.7166C45.4737 50.6215 45.0318 51.596 44.1717 52.1374C43.288 52.6866 42.2228 52.9263 41.1812 52.9186V52.9186Z" fill="#2F2F2F"/>
<path d="M47.6436 53.4909C48.8666 53.7075 50.1607 53.5605 51.1865 53.0578C51.9913 52.6479 53.4274 51.248 52.3859 50.4204C51.7309 49.9022 51.1549 50.111 50.5158 50.5132C48.8903 51.5419 46.6652 50.8148 46.1207 48.9586C46.0023 48.5332 46.168 47.8603 45.9708 47.4813C45.8761 47.3034 45.7262 47.3421 45.5052 47.2648C45.3553 47.2106 45.2606 47.1488 45.0949 47.141C44.3295 47.0946 43.8877 47.899 43.7693 48.5332C43.7062 48.8735 43.6351 49.1597 43.6904 49.5C43.8561 50.4591 44.1086 51.4877 44.8582 52.1761C45.6157 52.8877 46.6178 53.3053 47.6436 53.4909V53.4909Z" fill="#2F2F2F"/>
<path d="M41.0312 44.5732C41.0076 45.4008 41.4889 46.3134 42.3016 46.9322C42.9644 47.4349 43.9429 47.7598 44.9134 47.8526C45.884 47.9531 46.9097 47.8371 47.6594 47.4891C48.5904 47.0482 49.2533 46.2593 49.4032 45.4394C49.5531 44.666 49.4505 43.8462 48.6378 43.2119C48.1959 42.8562 47.6199 42.5932 47.0123 42.423C46.7914 42.3534 46.1917 42.191 45.5604 42.1291C44.9213 42.0595 44.2506 42.0905 44.0139 42.1137C43.3905 42.1601 42.7672 42.307 42.2543 42.5545C41.3311 43.0109 41.0549 43.7766 41.0312 44.5732V44.5732Z" fill="#2F2F2F"/>
<path d="M77.0441 76.7637C78.0067 76.1372 79.0167 76.4156 80.0899 76.5394C84.7138 77.0653 89.9531 81.0408 90.1425 85.7742C90.3713 91.8534 84.8558 96.2466 79.3639 97.6929C75.3634 98.7448 71.0314 98.7448 66.9125 98.5823C65.1135 98.5127 61.8625 98.8066 60.2765 97.8166C59.7084 97.4686 59.2113 96.7416 58.9509 96.146C57.9961 93.9727 59.9214 92.4567 61.9809 92.4645C63.4801 92.4722 64.9793 92.4954 66.4864 92.4799C69.7689 92.4567 73.0672 92.6965 76.3102 92.0623C79.2613 91.4899 83.5854 89.2238 83.4039 85.6969C83.2698 83.1059 80.3345 82.5954 78.2198 82.286C77.6832 82.2087 77.1545 82.0385 76.5391 82.0231C75.3318 81.9921 75.387 80.8784 75.4738 80.0121C75.6001 78.7823 75.7974 77.7537 76.8468 76.9106C76.8863 76.8642 76.9652 76.8101 77.0441 76.7637V76.7637Z" fill="#F79329"/>
<path d="M18.7402 38.4553C18.6613 38.4553 18.5824 38.4476 18.5035 38.4321L12.0174 37.1869C11.3546 37.0631 10.9206 36.4289 11.0547 35.7792C11.181 35.1295 11.8438 34.6964 12.4908 34.8356L18.9769 36.0886C19.6397 36.2123 20.0737 36.8466 19.9396 37.4885C19.8212 38.0531 19.3083 38.4553 18.7402 38.4553V38.4553Z" fill="#F79329"/>
<path d="M12.0726 43.3279C11.465 43.3279 10.9442 42.8871 10.8653 42.2838C10.7706 41.6264 11.2441 41.0308 11.9148 40.938L18.4719 40.095C19.1268 40.0022 19.7502 40.4662 19.8449 41.1237C19.9317 41.7811 19.4582 42.3844 18.7954 42.4694L12.2383 43.3125C12.1831 43.3279 12.1357 43.3279 12.0726 43.3279V43.3279Z" fill="#F79329"/>
<path d="M14.0057 48.742C13.4771 48.742 12.9879 48.4017 12.83 47.868C12.6407 47.2338 13.0194 46.5764 13.6743 46.3908L20.0263 44.6119C20.6733 44.434 21.3519 44.7975 21.5413 45.4394C21.7228 46.0737 21.3519 46.7388 20.697 46.9167L14.345 48.6956C14.2267 48.7266 14.1162 48.742 14.0057 48.742V48.742Z" fill="#F79329"/>
<path d="M72.3649 43.0882C71.7495 43.0882 71.2208 42.6319 71.1498 42.0209C71.1144 41.705 71.2083 41.3882 71.411 41.1402C71.6137 40.8922 71.9086 40.7333 72.2308 40.6983L78.8037 39.979C79.4586 39.9248 80.082 40.3812 80.153 41.0386C80.2319 41.7037 79.7427 42.2916 79.072 42.3612L72.4991 43.0805C72.4517 43.0805 72.4044 43.0882 72.3649 43.0882V43.0882Z" fill="#F79329"/>
<path d="M78.5827 48.4945C78.4959 48.4945 78.4091 48.4868 78.3144 48.4636L71.8599 47.0791C71.5445 47.0104 71.2696 46.8223 71.0951 46.5557C70.9207 46.2891 70.8609 45.9657 70.9288 45.656C71.0787 45.0141 71.7258 44.6041 72.3807 44.7434L78.8431 46.1278C79.498 46.267 79.9241 46.909 79.7742 47.5509C79.6558 48.1078 79.143 48.4945 78.5827 48.4945V48.4945Z" fill="#F79329"/>
<path d="M76.2076 53.723C76.0656 53.723 75.9157 53.6998 75.7737 53.6456L69.5953 51.3562C68.964 51.1242 68.6405 50.4281 68.8851 49.8094C69.1219 49.1906 69.832 48.8812 70.4633 49.1133L76.6495 51.4027C77.2808 51.6424 77.5964 52.3308 77.3597 52.9495C77.1703 53.4291 76.7048 53.723 76.2076 53.723V53.723Z" fill="#F79329"/>
<path d="M28.4063 9.68344C27.8303 11.153 26.6703 15.3837 27.3963 18.3923C27.6093 19.2895 28.7771 19.6917 29.6057 19.305C31.3337 18.4929 34.0323 17.062 35.0423 16.567C36.7625 15.7395 37.3542 14.7108 36.4232 13.4501C35.2396 11.8413 32.2885 8.50782 30.5446 8.18297C29.5504 7.99735 28.785 8.73211 28.4063 9.68344V9.68344Z" fill="#FCD4B5"/>
<path d="M69.1219 13.7517C69.4454 15.2986 69.8557 19.6531 68.6248 22.5148C68.2618 23.3578 67.0388 23.5666 66.2891 23.0484C64.7268 21.9656 62.3202 20.1094 61.3969 19.4597C59.8504 18.3614 59.4322 17.2477 60.5684 16.1571C62.0045 14.7649 65.4843 11.9574 67.2597 11.9264C68.2776 11.9032 68.9167 12.754 69.1219 13.7517V13.7517Z" fill="#FCD4B5"/>
</svg>
