<svg width="87" height="86" viewBox="0 0 87 86" fill="none" xmlns="http://www.w3.org/2000/svg">
<path d="M25.3219 53.6043C25.3219 53.6043 27.0184 59.0533 24.5075 72.6987C24.058 75.1473 23.3958 77.6484 23.0599 79.6981C18.8138 79.6981 18.5867 84.4807 19.4881 84.4807H24.5486C27.7797 84.4807 31.7285 76.5161 33.8624 65.4627C35.9963 54.4093 25.3219 53.6043 25.3219 53.6043V53.6043ZM56.8401 62.4479C56.8401 62.4479 62.3308 65.3624 62.1278 72.197C62.048 74.8988 61.526 77.1922 61.2698 79.421C56.8425 79.421 56.8256 84.1629 58.1161 84.1629H62.6014C64.832 84.1629 69.8538 76.6188 70.7673 66.7695C71.6833 56.9224 56.8401 62.4479 56.8401 62.4479V62.4479Z" fill="#F18F26"/>
<path d="M87 20.1789C87 8.42083 76.9926 2.38889 65.25 2.38889C64.609 2.38889 63.9943 2.64057 63.5411 3.08857C63.0879 3.53658 62.8333 4.1442 62.8333 4.77777C62.8333 5.41135 63.0879 6.01897 63.5411 6.46697C63.9943 6.91498 64.609 7.16666 65.25 7.16666C69.6096 7.16666 81.4827 9.39788 81.4827 20.1789C81.4827 27.0613 77.6958 33.2271 72.3719 34.4693C71.9756 34.2949 71.5381 34.2208 71.1418 34.0106C53.6476 24.6533 38.6207 36.1654 34.3456 33.3178C30.1116 30.4942 33.0431 25.542 27.521 20.7929C26.7235 16.3949 24.9279 10.0978 23.1855 10.0978C21.8587 10.0978 20.1284 14.4576 18.9805 18.8316C17.5522 15.5326 15.6866 12.2478 14.4855 12.2478C12.9388 12.2478 11.397 17.6778 10.6333 22.3648C6.57331 25.1048 3.61047 29.0752 3.61047 33.7478C3.61047 40.1978 13.398 41.7673 16.6605 41.8963C19.923 42.0253 23.9661 50.4056 25.3242 54.0128C28.3257 64.4451 30.2808 74.7937 31.8444 80.7277C27.8593 80.7277 27.4847 85.7707 28.5867 85.7707C30.3098 85.7707 33.3065 85.7635 33.9638 85.7707C37.3012 85.8041 38.86 74.5286 38.86 64.6314C38.86 64.1249 38.8334 63.1335 38.8334 63.1335C38.8334 63.1335 43.4976 64.3399 53.4252 62.6367C59.3316 61.6238 65.5811 64.6648 67.3114 70.1927C68.585 74.2634 70.6923 78.088 71.8257 80.9045C67.9856 80.9045 68.092 85.7707 69.2061 85.7707C71.108 85.7707 73.5585 85.8041 74.4816 85.7707C78.0293 85.6393 76.0356 67.6772 76.9708 61.65C77.9061 55.6229 80.0327 48.3248 76.4174 40.635C84.2377 36.3971 87 27.4842 87 20.1789Z" fill="#FFCC4E"/>
<path d="M14.4854 30.2624C15.6866 30.2624 16.6604 29.2999 16.6604 28.1124C16.6604 26.925 15.6866 25.9624 14.4854 25.9624C13.2842 25.9624 12.3104 26.925 12.3104 28.1124C12.3104 29.2999 13.2842 30.2624 14.4854 30.2624Z" fill="#292F33"/>
<path d="M7.21125 30.7211C5.57517 31.7316 5.57517 34.9662 4.75834 34.9662C3.9415 34.9662 2.30542 33.0646 2.30542 30.7211C2.303 28.3776 9.22192 29.4789 7.21125 30.7211Z" fill="#E75A70"/>
<path d="M15.8969 34.2638C15.7978 34.3259 15.6794 34.3498 15.5537 34.3259C15.5102 34.3164 11.8127 33.7502 9.40329 34.6747C9.09154 34.7942 8.5792 34.6198 8.4052 34.2184C8.2312 33.8171 8.46079 33.3465 8.77254 33.2271C12.2525 31.8678 15.677 32.6681 15.863 32.7063C16.199 32.7756 16.3343 33.1602 16.3174 33.5949C16.3077 33.8673 16.066 34.1563 15.8969 34.2638V34.2638ZM14.7562 39.8514C14.6973 39.8622 14.6368 39.8611 14.5783 39.8484C14.5197 39.8357 14.4644 39.8116 14.4155 39.7774C14.3792 39.7535 11.1989 37.7946 8.61062 37.7397C8.27712 37.7325 7.87354 37.3718 7.87354 36.9251C7.87354 36.4807 8.27229 36.1248 8.6082 36.1296C12.3589 36.1869 15.1912 38.2581 15.3483 38.3679C15.631 38.5638 15.5996 38.9771 15.4135 39.3808C15.2951 39.6364 14.9568 39.8156 14.7562 39.8514V39.8514Z" fill="#FEE7B8"/>
<path d="M18.9806 18.8268C18.9806 18.8268 19.8796 18.7337 21.0565 18.9057C21.5809 17.8068 22.4702 16.7867 22.4702 16.7867C22.4702 16.7867 23.1493 18.3825 23.4031 19.6032C23.4635 19.8899 23.9299 19.8827 24.1812 20.0547C24.1812 20.0547 24.2731 11.782 22.0956 10.8909C22.0981 10.8862 20.2711 13.576 18.9806 18.8268V18.8268ZM10.631 22.36C10.631 22.36 11.559 21.7222 12.7649 20.9888C13.2893 19.4981 14.1376 17.8044 14.1376 17.8044C14.1376 17.8044 14.8795 19.2425 14.9713 19.7394C15.4788 19.467 15.4788 19.4862 15.9452 19.2855C15.9452 19.2855 15.6697 13.8245 13.2893 13.2488C13.2893 13.2488 11.5203 16.5263 10.631 22.36V22.36Z" fill="#F18F26"/>
<path d="M44.5876 56.4829C38.1858 57.8445 38.8359 63.1288 38.8359 63.1288C38.8359 63.1288 43.5001 64.3352 53.4277 62.6319C55.9662 62.2127 58.573 62.5254 60.9363 63.5325C57.0527 56.2535 50.5084 55.2215 44.5876 56.4829Z" fill="#FFDD99"/>
<path d="M35.4912 33.7048C36.6415 35.3197 41.284 39.3617 42.125 38.8624C42.9418 38.3775 43.5508 33.9533 42.9515 32.3981C39.7397 33.2557 37.1877 33.97 35.4912 33.7048V33.7048ZM52.4659 40.1286C53.9715 40.4582 56.1078 33.0121 55.8734 30.2792C52.3716 30.3198 49.155 30.8907 46.2913 31.562C47.1009 34.142 51.011 39.8084 52.4659 40.1286ZM58.8145 30.3771C58.916 32.1043 61.1876 36.5954 61.9199 36.9155C62.6618 37.2428 65.992 33.7646 66.4294 31.992C63.9717 31.133 61.4123 30.5903 58.8145 30.3771V30.3771Z" fill="#F18F26"/>
</svg>
